<?xml version="1.0" encoding="utf-8"?>
<!-- Generator: Adobe Illustrator 23.0.3, SVG Export Plug-In . SVG Version: 6.00 Build 0)  -->
<svg version="1.1" xmlns="http://www.w3.org/2000/svg" xmlns:xlink="http://www.w3.org/1999/xlink" x="0px" y="0px"
	 viewBox="0 0 95 100" style="enable-background:new 0 0 95 100;" xml:space="preserve">
<style type="text/css">
	.st0{display:none;}
	.st1{display:inline;fill:#FFFFFF;stroke:#4379EF;stroke-width:5;stroke-linecap:round;stroke-miterlimit:10;}
	.st2{display:inline;}
	.st3{fill:#FFFFFF;stroke:#4379EF;stroke-linecap:round;stroke-miterlimit:10;}
	.st4{fill:#4379EF;}
	.st5{fill:#FFFFFF;stroke:#4379EF;stroke-width:4;stroke-linecap:round;stroke-miterlimit:10;}
	.st6{fill:none;stroke:#4379EF;stroke-width:4;stroke-linecap:round;stroke-miterlimit:10;}
	.st7{fill:#FFFFFF;stroke:#4379EF;stroke-width:2;stroke-linecap:round;stroke-miterlimit:10;}
	.st8{fill:none;stroke:#4379EF;stroke-linecap:round;stroke-miterlimit:10;}
	.st9{fill:none;stroke:#4379EF;stroke-width:2;stroke-linecap:round;stroke-miterlimit:10;}
	.st10{fill:#FFFFFF;stroke:#4379EF;stroke-width:5;stroke-linecap:round;stroke-miterlimit:10;}
	.st11{fill:#FFFFFF;stroke:#4379EF;stroke-width:3;stroke-linecap:round;stroke-miterlimit:10;}
	.st12{display:inline;fill:#FFFFFF;stroke:#4379EF;stroke-width:2;stroke-linecap:round;stroke-miterlimit:10;}
	.st13{display:inline;fill:#FFFFFF;stroke:#4379EF;stroke-linecap:round;stroke-miterlimit:10;}
	.st14{display:inline;fill:#4379EF;}
	.st15{display:inline;fill:#FFFFFF;stroke:#4379EF;stroke-width:0.5;stroke-miterlimit:10;}
	.st16{display:inline;fill:#FFFFFF;}
	.st17{fill:#FFFFFF;}
	.st18{fill:none;stroke:#4379EF;stroke-width:3;stroke-linecap:round;stroke-miterlimit:10;}
</style>
<g id="Camada_1" class="st0">
	<path class="st1" d="M54,95c0,0-2-6-6.01-15.37c-0.28-0.65-1.03-1.1-1.69-0.83C36,83,32.92,84.09,28.99,84.82
		c-2.7,0.5-5.24-1.43-5.5-4.16L20,70c0,0-11,3-10-1s6-14,6-14c0-0.19-4-12.87-4-13.06C12.32,21.7,29.56,5.58,50.19,7.1
		c17.52,1.29,31.63,15.56,32.74,33.1c0.6,9.57-2.58,18.38-8.2,25.09L82,87"/>
	<g class="st2">
		<g>
			<g>
				<g>
					
						<rect x="41.16" y="35.97" transform="matrix(-1 -1.224647e-16 1.224647e-16 -1 94.2179 83.8333)" class="st3" width="11.89" height="11.89"/>
					<g>
						
							<rect x="49.53" y="34.65" transform="matrix(-1 -1.224647e-16 1.224647e-16 -1 100.3833 72.3835)" class="st4" width="1.32" height="3.08"/>
						
							<rect x="46.45" y="34.65" transform="matrix(-1 -1.224647e-16 1.224647e-16 -1 94.2179 72.3835)" class="st4" width="1.32" height="3.08"/>
						
							<rect x="43.37" y="34.65" transform="matrix(-1 -1.224647e-16 1.224647e-16 -1 88.0526 72.3835)" class="st4" width="1.32" height="3.08"/>
					</g>
					<g>
						
							<rect x="49.53" y="46.1" transform="matrix(-1 -1.224647e-16 1.224647e-16 -1 100.3833 100.1274)" class="st4" width="1.32" height="7.93"/>
						
							<rect x="46.45" y="46.1" transform="matrix(-1 -1.224647e-16 1.224647e-16 -1 94.2179 106.2927)" class="st4" width="1.32" height="14.09"/>
						
							<rect x="43.37" y="46.1" transform="matrix(-1 -1.224647e-16 1.224647e-16 -1 88.0526 95.2832)" class="st4" width="1.32" height="3.08"/>
					</g>
					<g>
						
							<rect x="52.17" y="43.46" transform="matrix(6.123234e-17 -1 1 6.123234e-17 7.8346 97.8332)" class="st4" width="1.32" height="3.08"/>
						
							<rect x="52.17" y="40.38" transform="matrix(6.123234e-17 -1 1 6.123234e-17 10.9172 94.7506)" class="st4" width="1.32" height="3.08"/>
						
							<rect x="52.17" y="37.29" transform="matrix(6.123234e-17 -1 1 6.123234e-17 13.9999 91.6679)" class="st4" width="1.32" height="3.08"/>
					</g>
					<g>
						
							<rect x="40.72" y="43.46" transform="matrix(6.123234e-17 -1 1 6.123234e-17 -3.6153 86.3834)" class="st4" width="1.32" height="3.08"/>
						
							<rect x="40.72" y="40.38" transform="matrix(6.123234e-17 -1 1 6.123234e-17 -0.5326 83.3007)" class="st4" width="1.32" height="3.08"/>
						
							<rect x="40.72" y="37.29" transform="matrix(6.123234e-17 -1 1 6.123234e-17 2.55 80.2181)" class="st4" width="1.32" height="3.08"/>
					</g>
				</g>
				
					<rect x="43.81" y="38.61" transform="matrix(-1 -1.224647e-16 1.224647e-16 -1 94.2179 83.8333)" class="st4" width="6.61" height="6.61"/>
			</g>
			
				<rect x="49.53" y="52.71" transform="matrix(-1 -1.224647e-16 1.224647e-16 -1 103.4659 106.7331)" class="st4" width="4.4" height="1.32"/>
			
				<rect x="52.61" y="52.71" transform="matrix(-1 -1.224647e-16 1.224647e-16 -1 106.5486 115.981)" class="st4" width="1.32" height="10.57"/>
			<circle class="st3" cx="53.27" cy="62.61" r="1.98"/>
			
				<rect x="40.28" y="49.18" transform="matrix(-1 -1.224647e-16 1.224647e-16 -1 84.97 99.687)" class="st4" width="4.4" height="1.32"/>
			
				<rect x="38.52" y="50.94" transform="matrix(6.123234e-17 -1 1 6.123234e-17 -10.6614 92.5487)" class="st4" width="4.84" height="1.32"/>
			<circle class="st3" cx="40.94" cy="54.69" r="1.98"/>
			
				<rect x="43.37" y="59.31" transform="matrix(-1 -1.224647e-16 1.224647e-16 -1 91.1353 119.9444)" class="st4" width="4.4" height="1.32"/>
			
				<rect x="40.94" y="62.17" transform="matrix(6.123234e-17 -1 1 6.123234e-17 -18.8084 106.861)" class="st4" width="6.17" height="1.32"/>
			<circle class="st3" cx="44.03" cy="67.02" r="1.98"/>
		</g>
		<g>
			<g>
				<g>
					<rect x="41.16" y="35.97" class="st3" width="11.89" height="11.89"/>
					<g>
						<rect x="43.37" y="46.1" class="st4" width="1.32" height="3.08"/>
						<rect x="46.45" y="46.1" class="st4" width="1.32" height="3.08"/>
						<rect x="49.53" y="46.1" class="st4" width="1.32" height="3.08"/>
					</g>
					<g>
						<rect x="43.37" y="29.81" class="st4" width="1.32" height="7.93"/>
						<rect x="46.45" y="27.81" class="st4" width="1.32" height="9.93"/>
						<rect x="49.53" y="34.65" class="st4" width="1.32" height="3.08"/>
					</g>
					<g>
						
							<rect x="40.72" y="37.29" transform="matrix(-1.836970e-16 1 -1 -1.836970e-16 80.2181 -2.55)" class="st4" width="1.32" height="3.08"/>
						
							<rect x="40.72" y="40.38" transform="matrix(-1.836970e-16 1 -1 -1.836970e-16 83.3007 0.5326)" class="st4" width="1.32" height="3.08"/>
						
							<rect x="40.72" y="43.46" transform="matrix(-1.836970e-16 1 -1 -1.836970e-16 86.3834 3.6153)" class="st4" width="1.32" height="3.08"/>
					</g>
					<g>
						
							<rect x="52.17" y="37.29" transform="matrix(-1.836970e-16 1 -1 -1.836970e-16 91.6679 -13.9999)" class="st4" width="1.32" height="3.08"/>
						
							<rect x="52.17" y="40.38" transform="matrix(-1.836970e-16 1 -1 -1.836970e-16 94.7506 -10.9172)" class="st4" width="1.32" height="3.08"/>
						
							<rect x="52.17" y="43.46" transform="matrix(-1.836970e-16 1 -1 -1.836970e-16 97.8332 -7.8346)" class="st4" width="1.32" height="3.08"/>
					</g>
				</g>
				<rect x="43.81" y="38.61" class="st4" width="6.61" height="6.61"/>
			</g>
			<rect x="40.28" y="29.81" class="st4" width="4.4" height="1.32"/>
			<rect x="40.28" y="24.72" class="st4" width="1.32" height="6.4"/>
			<circle class="st3" cx="40.94" cy="25.39" r="1.98"/>
			<rect x="49.53" y="33.33" class="st4" width="4.4" height="1.32"/>
			
				<rect x="50.85" y="31.57" transform="matrix(-1.836970e-16 1 -1 -1.836970e-16 85.5026 -21.046)" class="st4" width="4.84" height="1.32"/>
			<circle class="st3" cx="53.27" cy="30.53" r="1.98"/>
			<rect x="46.45" y="27.37" class="st4" width="4.4" height="1.32"/>
			
				<rect x="47.11" y="24.5" transform="matrix(-1.836970e-16 1 -1 -1.836970e-16 75.3569 -25.0263)" class="st4" width="6.17" height="1.32"/>
			<circle class="st3" cx="50.19" cy="20.98" r="1.98"/>
		</g>
		<g>
			<g>
				<g>
					
						<rect x="41.16" y="35.97" transform="matrix(-7.632211e-14 -1 1 -7.632211e-14 5.1923 89.0256)" class="st3" width="11.89" height="11.89"/>
					<g>
						
							<rect x="52.17" y="43.46" transform="matrix(6.123234e-17 -1 1 6.123234e-17 7.8346 97.8332)" class="st4" width="1.32" height="3.08"/>
						
							<rect x="52.17" y="40.38" transform="matrix(6.123234e-17 -1 1 6.123234e-17 10.9172 94.7506)" class="st4" width="1.32" height="3.08"/>
						
							<rect x="52.17" y="37.29" transform="matrix(6.123234e-17 -1 1 6.123234e-17 13.9999 91.6679)" class="st4" width="1.32" height="3.08"/>
					</g>
					<g>
						
							<rect x="38.3" y="41.04" transform="matrix(6.123234e-17 -1 1 6.123234e-17 -6.0374 83.9613)" class="st4" width="1.32" height="7.93"/>
						
							<rect x="35.22" y="34.87" transform="matrix(6.123234e-17 -1 1 6.123234e-17 -6.0374 77.796)" class="st4" width="1.32" height="14.09"/>
						
							<rect x="40.72" y="37.29" transform="matrix(6.123234e-17 -1 1 6.123234e-17 2.55 80.2181)" class="st4" width="1.32" height="3.08"/>
					</g>
					<g>
						<rect x="43.37" y="46.1" class="st4" width="1.32" height="3.08"/>
						<rect x="46.45" y="46.1" class="st4" width="1.32" height="3.08"/>
						<rect x="49.53" y="46.1" class="st4" width="1.32" height="3.08"/>
					</g>
					<g>
						<rect x="43.37" y="34.65" class="st4" width="1.32" height="3.08"/>
						<rect x="46.45" y="34.65" class="st4" width="1.32" height="3.08"/>
						<rect x="49.53" y="34.65" class="st4" width="1.32" height="3.08"/>
					</g>
				</g>
				
					<rect x="43.81" y="38.61" transform="matrix(6.123234e-17 -1 1 6.123234e-17 5.1923 89.0256)" class="st4" width="6.61" height="6.61"/>
			</g>
			
				<rect x="33.46" y="45.88" transform="matrix(6.123234e-17 -1 1 6.123234e-17 -10.8815 82.1998)" class="st4" width="4.4" height="1.32"/>
			
				<rect x="30.37" y="42.8" transform="matrix(6.123234e-17 -1 1 6.123234e-17 -17.0469 79.1171)" class="st4" width="1.32" height="10.57"/>
			<circle class="st3" cx="26.41" cy="48.08" r="1.98"/>
			
				<rect x="36.98" y="36.63" transform="matrix(6.123234e-17 -1 1 6.123234e-17 1.8895 76.4748)" class="st4" width="4.4" height="1.32"/>
			<rect x="35" y="35.09" class="st4" width="4.84" height="1.32"/>
			<circle class="st3" cx="34.34" cy="35.75" r="1.98"/>
			
				<rect x="26.85" y="39.71" transform="matrix(6.123234e-17 -1 1 6.123234e-17 -11.3219 69.4288)" class="st4" width="4.4" height="1.32"/>
			<rect x="23.11" y="38.17" class="st4" width="6.17" height="1.32"/>
			<circle class="st3" cx="22.01" cy="38.83" r="1.98"/>
		</g>
		<g>
			
				<rect x="41.16" y="35.97" transform="matrix(1.525830e-13 1 -1 1.525830e-13 89.0256 -5.1923)" class="st3" width="11.89" height="11.89"/>
			<g>
				
					<rect x="40.72" y="37.29" transform="matrix(-1.836970e-16 1 -1 -1.836970e-16 80.2181 -2.55)" class="st4" width="1.32" height="3.08"/>
				
					<rect x="40.72" y="40.38" transform="matrix(-1.836970e-16 1 -1 -1.836970e-16 83.3007 0.5326)" class="st4" width="1.32" height="3.08"/>
				
					<rect x="40.72" y="43.46" transform="matrix(-1.836970e-16 1 -1 -1.836970e-16 86.3834 3.6153)" class="st4" width="1.32" height="3.08"/>
			</g>
			<g>
				
					<rect x="54.6" y="34.87" transform="matrix(-1.836970e-16 1 -1 -1.836970e-16 94.09 -16.422)" class="st4" width="1.32" height="7.93"/>
				
					<rect x="57.68" y="34.87" transform="matrix(-1.836970e-16 1 -1 -1.836970e-16 100.2553 -16.422)" class="st4" width="1.32" height="14.09"/>
				
					<rect x="52.17" y="43.46" transform="matrix(-1.836970e-16 1 -1 -1.836970e-16 97.8332 -7.8346)" class="st4" width="1.32" height="3.08"/>
			</g>
			<g>
				
					<rect x="49.53" y="34.65" transform="matrix(-1 -1.224647e-16 1.224647e-16 -1 100.3833 72.3835)" class="st4" width="1.32" height="3.08"/>
				
					<rect x="46.45" y="34.65" transform="matrix(-1 -1.224647e-16 1.224647e-16 -1 94.2179 72.3835)" class="st4" width="1.32" height="3.08"/>
				
					<rect x="43.37" y="34.65" transform="matrix(-1 -1.224647e-16 1.224647e-16 -1 88.0526 72.3835)" class="st4" width="1.32" height="3.08"/>
			</g>
			<g>
				
					<rect x="49.53" y="46.1" transform="matrix(-1 -1.224647e-16 1.224647e-16 -1 100.3833 95.2832)" class="st4" width="1.32" height="3.08"/>
				
					<rect x="46.45" y="46.1" transform="matrix(-1 -1.224647e-16 1.224647e-16 -1 94.2179 95.2832)" class="st4" width="1.32" height="3.08"/>
				
					<rect x="43.37" y="46.1" transform="matrix(-1 -1.224647e-16 1.224647e-16 -1 88.0526 95.2832)" class="st4" width="1.32" height="3.08"/>
			</g>
		</g>
		
			<rect x="43.81" y="38.61" transform="matrix(-1.836970e-16 1 -1 -1.836970e-16 89.0256 -5.1923)" class="st4" width="6.61" height="6.61"/>
		
			<rect x="56.36" y="36.63" transform="matrix(-1.836970e-16 1 -1 -1.836970e-16 95.8515 -21.2662)" class="st4" width="4.4" height="1.32"/>
		
			<rect x="62.52" y="30.47" transform="matrix(-1.836970e-16 1 -1 -1.836970e-16 98.9342 -27.4315)" class="st4" width="1.32" height="10.57"/>
		<circle class="st3" cx="67.81" cy="35.75" r="1.98"/>
		
			<rect x="52.83" y="45.88" transform="matrix(2.058737e-13 1 -1 2.058737e-13 101.5765 -8.4952)" class="st4" width="4.4" height="1.32"/>
		
			<rect x="54.38" y="47.42" transform="matrix(-1 -1.224647e-16 1.224647e-16 -1 113.5946 96.164)" class="st4" width="4.84" height="1.32"/>
		<circle class="st3" cx="59.88" cy="48.08" r="1.98"/>
		
			<rect x="62.96" y="42.8" transform="matrix(-1.836970e-16 1 -1 -1.836970e-16 108.6225 -21.7065)" class="st4" width="4.4" height="1.32"/>
		
			<rect x="64.94" y="44.34" transform="matrix(-1 -1.224647e-16 1.224647e-16 -1 136.054 89.9986)" class="st4" width="6.17" height="1.32"/>
		<circle class="st3" cx="72.21" cy="45" r="1.98"/>
	</g>
</g>
<g id="Camada_2" class="st0">
	<g class="st2">
		<g>
			<circle class="st5" cx="48.09" cy="28.77" r="21.77"/>
			<ellipse class="st6" cx="48.09" cy="28.77" rx="21.77" ry="6.4"/>
			<ellipse class="st6" cx="48.09" cy="28.77" rx="6.4" ry="21.77"/>
		</g>
		<path class="st7" d="M54.36,92.14H43.69c-0.55,0-1-0.45-1-1V73.95c0-0.55,0.45-1,1-1h10.67c0.55,0,1,0.45,1,1v17.19
			C55.36,91.69,54.91,92.14,54.36,92.14z"/>
		<path class="st4" d="M55.52,89.74H42.68c-0.27,0-0.48-0.22-0.48-0.5s0.22-0.5,0.48-0.5h12.84c0.27,0,0.48,0.22,0.48,0.5
			S55.78,89.74,55.52,89.74z"/>
		<line class="st8" x1="42.5" y1="76.57" x2="55.36" y2="76.57"/>
		<g>
			<path class="st7" d="M28.75,78.92h-0.47c-0.38,0-0.68,0.3-0.68,0.68v11.37c0,0.38-0.3,0.68-0.68,0.68H16.8h-0.22H6.46
				c-0.38,0-0.68-0.3-0.68-0.68V79.6c0-0.38-0.3-0.68-0.68-0.68H4.22c-0.6,0-0.91-0.73-0.48-1.16l12.47-8.13
				c0.27-0.27,0.7-0.27,0.96,0l12.06,8.13C29.65,78.19,29.35,78.92,28.75,78.92z"/>
			<rect x="14.35" y="83.81" class="st9" width="4.83" height="7.24"/>
		</g>
		<g>
			<path class="st7" d="M90.57,85.76H70.81c-0.87,0-1.58-0.71-1.58-1.58V71.66c0-0.87,0.71-1.58,1.58-1.58h19.76
				c0.87,0,1.58,0.71,1.58,1.58v12.52C92.15,85.05,91.44,85.76,90.57,85.76z"/>
			<path class="st7" d="M92.15,93v-1.71c0-1.05-0.86-1.9-1.9-1.9H71.14c-1.05,0-1.9,0.86-1.9,1.9V93H92.15z"/>
		</g>
		<g>
			<g>
				<circle class="st4" cx="30.57" cy="52.65" r="2.12"/>
				<circle class="st4" cx="27.39" cy="59.02" r="2.12"/>
			</g>
			<g>
				<circle class="st4" cx="24.2" cy="65.4" r="2.12"/>
			</g>
		</g>
		<g>
			<g>
				<circle class="st4" cx="68.79" cy="52.65" r="2.12"/>
				<circle class="st4" cx="71.98" cy="59.02" r="2.12"/>
			</g>
			<g>
				<circle class="st4" cx="75.16" cy="65.4" r="2.12"/>
			</g>
		</g>
		<g>
			<g>
				<circle class="st4" cx="48.62" cy="57.96" r="2.12"/>
			</g>
		</g>
		<g>
			<g>
				<circle class="st4" cx="48.62" cy="65.4" r="2.12"/>
			</g>
		</g>
	</g>
</g>
<g id="Camada_3" class="st0">
	<g class="st2">
		<path class="st10" d="M6.7,58.75h5.04c0.54,1.73,1.25,3.38,2.12,4.93l-3.62,3.62c-1.19,1.19-1.19,3.14,0,4.33l5.47,5.47
			c1.19,1.19,3.14,1.19,4.33,0l3.62-3.62c1.55,0.87,3.2,1.58,4.93,2.12v5.04c0,1.68,1.38,3.06,3.06,3.06h7.74
			c1.68,0,3.06-1.38,3.06-3.06v-4.65c1.89-0.48,3.7-1.16,5.4-2.03L51,77.1c1.19,1.19,3.14,1.19,4.33,0l5.47-5.47
			c1.19-1.19,1.19-3.14,0-4.33l-2.76-2.76c1.11-1.8,1.99-3.74,2.63-5.79h3.67c1.68,0,3.06-1.38,3.06-3.06v-7.74
			c0-1.68-1.38-3.06-3.06-3.06h-3.26c-0.56-2.23-1.41-4.35-2.51-6.31l2.24-2.24c1.19-1.19,1.19-3.14,0-4.33l-5.47-5.47
			c-1.19-1.19-3.14-1.19-4.33,0l-2.24,2.24c-1.96-1.1-4.08-1.95-6.31-2.51V23c0-1.68-1.38-3.06-3.06-3.06h-7.74
			c-1.68,0-3.06,1.38-3.06,3.06v3.66c-2.05,0.65-3.99,1.53-5.79,2.63l-2.76-2.76c-1.19-1.19-3.14-1.19-4.33,0l-5.47,5.47
			c-1.19,1.19-1.19,3.14,0,4.33l3.14,3.14c-0.87,1.7-1.56,3.51-2.03,5.4H6.7c-1.68,0-3.06,1.38-3.06,3.06v7.74
			C3.64,57.37,5.01,58.75,6.7,58.75z"/>
		<circle class="st10" cx="35.52" cy="51.82" r="10.4"/>
	</g>
	<g class="st2">
		<path class="st5" d="M88.66,97H40.13c-2.03,0-3.69-1.66-3.69-3.69V6.69C36.44,4.66,38.1,3,40.13,3h48.54
			c2.03,0,3.69,1.66,3.69,3.69v86.62C92.36,95.34,90.69,97,88.66,97z"/>
		<path class="st7" d="M72.49,14.26H57.51c-1.55,0-2.81-1.26-2.81-2.81v-0.28c0-1.55,1.26-2.81,2.81-2.81h14.98
			c1.55,0,2.81,1.26,2.81,2.81v0.28C75.3,13,74.03,14.26,72.49,14.26z"/>
		<path class="st7" d="M65.59,91.73h-0.22c-1.55,0-2.81-1.26-2.81-2.81v-0.28c0-1.55,1.26-2.81,2.81-2.81h0.22
			c1.55,0,2.81,1.26,2.81,2.81v0.28C68.4,90.47,67.14,91.73,65.59,91.73z"/>
		<rect x="42.83" y="19.01" class="st11" width="43.27" height="61.98"/>
	</g>
</g>
<g id="Camada_4" class="st0">
	<g class="st2">
		<path class="st5" d="M5.91,47.8h4.65c0.5,1.59,1.15,3.11,1.95,4.54l-3.34,3.34c-1.1,1.1-1.1,2.9,0,3.99l5.05,5.05
			c1.1,1.1,2.9,1.1,3.99,0l3.34-3.34c1.43,0.8,2.95,1.46,4.54,1.95v4.65c0,1.55,1.27,2.82,2.82,2.82h7.14
			c1.55,0,2.82-1.27,2.82-2.82V63.7c1.75-0.44,3.41-1.07,4.98-1.88l2.9,2.9c1.1,1.1,2.9,1.1,3.99,0l5.05-5.05
			c1.1-1.1,1.1-2.9,0-3.99l-2.54-2.54c1.02-1.66,1.83-3.45,2.43-5.34h3.38c1.55,0,2.82-1.27,2.82-2.82v-7.14
			c0-1.55-1.27-2.82-2.82-2.82h-3.01c-0.52-2.06-1.3-4.01-2.32-5.82l2.06-2.06c1.1-1.1,1.1-2.9,0-3.99l-5.05-5.05
			c-1.1-1.1-2.9-1.1-3.99,0l-2.06,2.06c-1.81-1.02-3.76-1.8-5.82-2.32v-3.01c0-1.55-1.27-2.82-2.82-2.82h-7.14
			c-1.55,0-2.82,1.27-2.82,2.82v3.38c-1.89,0.6-3.68,1.41-5.34,2.43l-2.54-2.54c-1.1-1.1-2.9-1.1-3.99,0l-5.05,5.05
			c-1.1,1.1-1.1,2.9,0,3.99l2.9,2.9c-0.8,1.57-1.43,3.24-1.88,4.98H5.91c-1.55,0-2.82,1.27-2.82,2.82v7.14
			C3.09,46.53,4.36,47.8,5.91,47.8z"/>
		<circle class="st5" cx="32.5" cy="41.41" r="9.59"/>
	</g>
	<path class="st12" d="M89.71,40.99H34.99c-1.82,0-3.29,1.61-3.29,3.6v35.22c0,1.99,1.47,3.6,3.29,3.6h23.59v2.85
		c0,0.29,0.03,0.58,0.09,0.85c-3.72,0.02-6.91,0.19-8.94,1.16c-1.53,0.73-1.97,1.52-1.97,2.61c0,0.38,1.73,0.88,1.94,0.94
		c2.61,0.74,5.34,0.83,8.02,0.99c2.81,0.17,5.63,0.19,8.45,0.06c1.63-0.07,3.26-0.2,4.89-0.37c1.52-0.16,3.05-0.26,4.53-0.68
		c0.21-0.06,1.94-0.55,1.94-0.94c0-1.09-0.43-1.88-1.97-2.61c-2.11-1-5.46-1.15-9.37-1.16c0.06-0.27,0.1-0.55,0.1-0.84
		c0,0,0-1.56,0-2.85h23.41c1.82,0,3.29-1.61,3.29-3.6V44.59C93,42.6,91.53,40.99,89.71,40.99z"/>
	<rect x="36.63" y="46.37" class="st13" width="51.3" height="32.07"/>
	<rect x="39.09" y="55.28" class="st14" width="46.33" height="1.78"/>
	<rect x="39.09" y="58.84" class="st14" width="15.14" height="7.32"/>
	<rect x="56.02" y="59.04" class="st15" width="13.93" height="7.13"/>
	<rect x="59.41" y="82.57" class="st16" width="6.08" height="7.75"/>
	<rect x="39.44" y="48.19" class="st15" width="46.47" height="5.39"/>
	<rect x="39.44" y="68.1" class="st15" width="46.47" height="7.75"/>
	<rect x="71.51" y="59.04" class="st15" width="13.93" height="7.13"/>
</g>
<g id="Camada_5" class="st0">
	<g class="st2">
		<path class="st5" d="M50.83,77.67h12.08l3.39,12.09c1.03,3.68,4.89,5.85,8.58,4.82l6.05-1.69c3.68-1.03,5.85-4.89,4.82-8.58
			l-7.86-28.05C76.97,50.45,71.96,46,65.89,46c-3.97,0-7.49,1.91-9.7,4.86h-5.36h-5.65h-5.36c-2.22-2.95-5.73-4.86-9.7-4.86
			c-6.07,0-11.08,4.45-11.99,10.26l-7.86,28.05c-1.03,3.68,1.14,7.54,4.82,8.58l6.05,1.69c3.68,1.03,7.54-1.14,8.58-4.82l3.39-12.09
			h12.08H50.83z"/>
		<polygon class="st4" points="34.28,60.74 31.23,60.74 31.23,57.7 27.49,57.7 27.49,60.74 24.45,60.74 24.45,64.49 27.49,64.49 
			27.49,67.53 31.23,67.53 31.23,64.49 34.28,64.49 		"/>
		<g>
			<circle class="st4" cx="66.34" cy="59.11" r="1.87"/>
			<circle class="st4" cx="66.34" cy="66.6" r="1.87"/>
			<circle class="st4" cx="70.09" cy="62.85" r="1.87"/>
			<circle class="st4" cx="62.6" cy="62.85" r="1.87"/>
		</g>
	</g>
	<g class="st2">
		<g>
			<g>
				<polygon class="st4" points="40.7,42 45.13,42 45.13,42 45.13,37.57 45.13,37.57 40.7,37.57 36.28,37.57 36.28,42 				"/>
				<polygon class="st4" points="52.87,33.15 52.87,14.34 40.7,14.34 40.7,9.91 36.28,9.91 36.28,14.34 31.85,14.34 31.85,18.77 
					27.43,18.77 27.43,23.19 23,23.19 23,27.62 23,32.04 23,36.47 27.43,36.47 27.43,32.04 27.43,27.62 31.85,27.62 31.85,28.72 
					31.85,33.15 31.85,37.57 36.28,37.57 36.28,33.15 				"/>
				<rect x="31.85" y="5.49" class="st4" width="4.43" height="4.43"/>
			</g>
			<rect x="36.28" y="18.77" class="st17" width="4.43" height="4.43"/>
		</g>
		<g>
			<g>
				<polygon class="st4" points="57.3,42 52.87,42 52.87,42 52.87,37.57 52.87,37.57 57.3,37.57 61.72,37.57 61.72,42 				"/>
				<polygon class="st4" points="45.13,33.15 45.13,14.34 57.3,14.34 57.3,9.91 61.72,9.91 61.72,14.34 66.15,14.34 66.15,18.77 
					70.57,18.77 70.57,23.19 75,23.19 75,27.62 75,32.04 75,36.47 70.57,36.47 70.57,32.04 70.57,27.62 66.15,27.62 66.15,28.72 
					66.15,33.15 66.15,37.57 61.72,37.57 61.72,33.15 				"/>
				<rect x="61.72" y="5.49" class="st4" width="4.43" height="4.43"/>
			</g>
			
				<rect x="57.3" y="18.77" transform="matrix(-1 -4.480162e-11 4.480162e-11 -1 119.0213 41.9574)" class="st17" width="4.43" height="4.43"/>
		</g>
	</g>
</g>
<g id="Camada_6">
	<path class="st5" d="M27.72,81.27c0,0,1.11-4.19,3.44-10.77c0.16-0.46,0.66-0.8,1.12-0.64c7.23,2.43,9.38,3.04,12.1,3.37
		c1.87,0.23,3.52-1.2,3.58-3.08l1.93-7.44c0,0,7.65,1.58,6.8-1.12c-0.86-2.69-4.71-9.31-4.71-9.31c-0.01-0.13,2.18-8.98,2.17-9.1
		c-1.09-13.82-13.58-24.11-27.62-22.17C14.6,22.63,5.57,33,5.57,45.04c0,6.57,2.56,12.46,6.69,16.8L8.22,77"/>
	<path class="st5" d="M53.81,56H43.12c-4.51,0-8.19-3.69-8.19-8.19v-5.62c0-4.51,3.69-8.19,8.19-8.19h10.69
		c4.51,0,8.19,3.69,8.19,8.19v5.62C62,52.31,58.31,56,53.81,56z"/>
	<path class="st7" d="M4,48h29c1.1,0,2-0.9,2-2v-3c0-1.1-0.9-2-2-2H4c-1.1,0-2,0.9-2,2v3C2,47.1,2.9,48,4,48z"/>
	<line class="st8" x1="10.5" y1="47.5" x2="14.5" y2="41.5"/>
	<line class="st8" x1="13.5" y1="47.5" x2="17.5" y2="41.5"/>
	<g>
		<polygon class="st11" points="84.65,54.56 70.3,54.58 62.26,66.47 68.88,78.18 83.45,79.32 90.65,66.6 		"/>
		<line class="st18" x1="76.61" y1="66.45" x2="83.45" y2="79.32"/>
		<line class="st18" x1="62.5" y1="66.5" x2="76.5" y2="66.5"/>
		<line class="st18" x1="84.5" y1="54.5" x2="76.5" y2="66.5"/>
	</g>
</g>
</svg>
