<?xml version="1.0" encoding="utf-8"?>
<!-- Generator: Adobe Illustrator 22.0.1, SVG Export Plug-In . SVG Version: 6.00 Build 0)  -->
<svg version="1.1" id="Camada_3" xmlns="http://www.w3.org/2000/svg" xmlns:xlink="http://www.w3.org/1999/xlink" x="0px" y="0px"
	 viewBox="0 0 286.3 32" style="enable-background:new 0 0 286.3 32;" xml:space="preserve">
<style type="text/css">
	.st0{fill:#00467B;}
</style>
<g>
	<g>
		<polygon class="st0" points="1.3,16.1 1.3,0.6 5.2,0.6 9.1,0.6 9.1,12.2 9.1,23.8 14.9,23.8 20.7,23.8 20.7,27.7 20.7,31.6 
			11,31.6 1.3,31.6 		"/>
		<polygon class="st0" points="38,29.7 38,27.8 36.1,27.8 34.2,27.8 34.2,14.2 34.2,0.6 38.1,0.6 42.1,0.6 42.1,12.2 42.1,23.8 
			45.9,23.8 49.7,23.8 49.7,12.2 49.7,0.6 53.7,0.6 57.7,0.6 57.7,14.2 57.7,27.8 55.7,27.8 53.7,27.8 53.7,29.7 53.7,31.6 
			45.9,31.6 38,31.6 		"/>
		<path class="st0" d="M71,16.1V0.6h9.7h9.7v1.9v1.9h1.9h1.9v11.7v11.7h-1.9h-1.9v1.9v1.9h-9.7H71V16.1z M86.4,16.2V8.6h-3.8h-3.8
			v7.6v7.6h3.8h3.8V16.2z"/>
		<polygon class="st0" points="111.6,29.7 111.6,27.8 109.7,27.8 107.8,27.8 107.8,14.2 107.8,0.6 111.7,0.6 115.6,0.6 115.6,12.2 
			115.6,23.8 119.4,23.8 123.2,23.8 123.2,12.2 123.2,0.6 127.2,0.6 131.2,0.6 131.2,14.2 131.2,27.8 129.2,27.8 127.2,27.8 
			127.2,29.7 127.2,31.6 119.4,31.6 111.6,31.6 		"/>
		<polygon class="st0" points="144.6,27.7 144.6,23.8 152.3,23.8 160,23.8 160,22 160,20.2 154.2,20.2 148.4,20.2 148.4,18.2 
			148.4,16.2 146.5,16.2 144.6,16.2 144.6,10.3 144.6,4.4 146.5,4.4 148.4,4.4 148.4,2.5 148.4,0.6 158.1,0.6 167.8,0.6 167.8,4.6 
			167.8,8.6 160.1,8.6 152.4,8.6 152.4,10.4 152.4,12.2 158.2,12.2 164,12.2 164,14.1 164,16 165.9,16 167.8,16 167.8,21.9 
			167.8,27.8 165.9,27.8 164,27.8 164,29.7 164,31.7 154.3,31.7 144.6,31.7 		"/>
	</g>
	<g>
		<polygon class="st0" points="192.2,16.2 192.2,0.7 196.1,0.7 200,0.7 200,12.3 200,23.9 205.8,23.9 211.6,23.9 211.6,27.8 
			211.6,31.8 201.9,31.8 192.2,31.8 		"/>
		<path class="st0" d="M244.8,4.5V0.7h-15.8v3.8h-3.8v27.3h7.5l0.1-6.1h7.8v-0.1l0.1,6.2h8V4.5H244.8z M240.5,21.5h-7.8V6.1h7.8
			V21.5z"/>
		<path class="st0" d="M283.2,4.5h-1.9V2.6V0.7h-9.7h-9.7v15.5v15.5h9.7h9.7v-1.9V28h1.9h1.9V16.2V4.5H283.2z M273.5,8.7h3.8v5.4
			h-3.8h-3.8V8.7H273.5z M273.5,23.9h-3.8v-5.4h3.8h3.8v5.4H273.5z"/>
	</g>
	<rect x="178.1" y="27.9" class="st0" width="3.8" height="3.8"/>
</g>
</svg>
