<?xml version="1.0" encoding="utf-8"?>
<!-- Generator: Adobe Illustrator 23.0.3, SVG Export Plug-In . SVG Version: 6.00 Build 0)  -->
<svg version="1.1" id="Camada_1" xmlns="http://www.w3.org/2000/svg" xmlns:xlink="http://www.w3.org/1999/xlink" x="0px" y="0px"
	 viewBox="0 0 95 100" style="enable-background:new 0 0 95 100;" xml:space="preserve">
<style type="text/css">
	.st0{fill:#FFFFFF;stroke:#4379EF;stroke-width:5;stroke-linecap:round;stroke-miterlimit:10;}
	.st1{fill:#FFFFFF;stroke:#4379EF;stroke-linecap:round;stroke-miterlimit:10;}
	.st2{fill:#4379EF;}
</style>
<path class="st0" d="M54,95c0,0-2-6-6.01-15.37c-0.28-0.65-1.03-1.1-1.69-0.83C36,83,32.92,84.09,28.99,84.82
	c-2.7,0.5-5.24-1.43-5.5-4.16L20,70c0,0-11,3-10-1s6-14,6-14c0-0.19-4-12.87-4-13.06C12.32,21.7,29.56,5.58,50.19,7.1
	c17.52,1.29,31.63,15.56,32.74,33.1c0.6,9.57-2.58,18.38-8.2,25.09L82,87"/>
<g>
	<g>
		<g>
			<g>
				
					<rect x="41.16" y="35.97" transform="matrix(-1 -1.224647e-16 1.224647e-16 -1 94.2179 83.8333)" class="st1" width="11.89" height="11.89"/>
				<g>
					
						<rect x="49.53" y="34.65" transform="matrix(-1 -1.224647e-16 1.224647e-16 -1 100.3833 72.3835)" class="st2" width="1.32" height="3.08"/>
					
						<rect x="46.45" y="34.65" transform="matrix(-1 -1.224647e-16 1.224647e-16 -1 94.2179 72.3835)" class="st2" width="1.32" height="3.08"/>
					
						<rect x="43.37" y="34.65" transform="matrix(-1 -1.224647e-16 1.224647e-16 -1 88.0526 72.3835)" class="st2" width="1.32" height="3.08"/>
				</g>
				<g>
					
						<rect x="49.53" y="46.1" transform="matrix(-1 -1.224647e-16 1.224647e-16 -1 100.3833 100.1274)" class="st2" width="1.32" height="7.93"/>
					
						<rect x="46.45" y="46.1" transform="matrix(-1 -1.224647e-16 1.224647e-16 -1 94.2179 106.2927)" class="st2" width="1.32" height="14.09"/>
					
						<rect x="43.37" y="46.1" transform="matrix(-1 -1.224647e-16 1.224647e-16 -1 88.0526 95.2832)" class="st2" width="1.32" height="3.08"/>
				</g>
				<g>
					
						<rect x="52.17" y="43.46" transform="matrix(6.123234e-17 -1 1 6.123234e-17 7.8346 97.8332)" class="st2" width="1.32" height="3.08"/>
					
						<rect x="52.17" y="40.38" transform="matrix(6.123234e-17 -1 1 6.123234e-17 10.9172 94.7506)" class="st2" width="1.32" height="3.08"/>
					
						<rect x="52.17" y="37.29" transform="matrix(6.123234e-17 -1 1 6.123234e-17 13.9999 91.6679)" class="st2" width="1.32" height="3.08"/>
				</g>
				<g>
					
						<rect x="40.72" y="43.46" transform="matrix(6.123234e-17 -1 1 6.123234e-17 -3.6153 86.3834)" class="st2" width="1.32" height="3.08"/>
					
						<rect x="40.72" y="40.38" transform="matrix(6.123234e-17 -1 1 6.123234e-17 -0.5326 83.3007)" class="st2" width="1.32" height="3.08"/>
					
						<rect x="40.72" y="37.29" transform="matrix(6.123234e-17 -1 1 6.123234e-17 2.55 80.2181)" class="st2" width="1.32" height="3.08"/>
				</g>
			</g>
			
				<rect x="43.81" y="38.61" transform="matrix(-1 -1.224647e-16 1.224647e-16 -1 94.2179 83.8333)" class="st2" width="6.61" height="6.61"/>
		</g>
		
			<rect x="49.53" y="52.71" transform="matrix(-1 -1.224647e-16 1.224647e-16 -1 103.4659 106.7331)" class="st2" width="4.4" height="1.32"/>
		
			<rect x="52.61" y="52.71" transform="matrix(-1 -1.224647e-16 1.224647e-16 -1 106.5486 115.981)" class="st2" width="1.32" height="10.57"/>
		<circle class="st1" cx="53.27" cy="62.61" r="1.98"/>
		
			<rect x="40.28" y="49.18" transform="matrix(-1 -1.224647e-16 1.224647e-16 -1 84.97 99.687)" class="st2" width="4.4" height="1.32"/>
		
			<rect x="38.52" y="50.94" transform="matrix(6.123234e-17 -1 1 6.123234e-17 -10.6614 92.5487)" class="st2" width="4.84" height="1.32"/>
		<circle class="st1" cx="40.94" cy="54.69" r="1.98"/>
		
			<rect x="43.37" y="59.31" transform="matrix(-1 -1.224647e-16 1.224647e-16 -1 91.1353 119.9444)" class="st2" width="4.4" height="1.32"/>
		
			<rect x="40.94" y="62.17" transform="matrix(6.123234e-17 -1 1 6.123234e-17 -18.8084 106.861)" class="st2" width="6.17" height="1.32"/>
		<circle class="st1" cx="44.03" cy="67.02" r="1.98"/>
	</g>
	<g>
		<g>
			<g>
				<rect x="41.16" y="35.97" class="st1" width="11.89" height="11.89"/>
				<g>
					<rect x="43.37" y="46.1" class="st2" width="1.32" height="3.08"/>
					<rect x="46.45" y="46.1" class="st2" width="1.32" height="3.08"/>
					<rect x="49.53" y="46.1" class="st2" width="1.32" height="3.08"/>
				</g>
				<g>
					<rect x="43.37" y="29.81" class="st2" width="1.32" height="7.93"/>
					<rect x="46.45" y="27.81" class="st2" width="1.32" height="9.93"/>
					<rect x="49.53" y="34.65" class="st2" width="1.32" height="3.08"/>
				</g>
				<g>
					
						<rect x="40.72" y="37.29" transform="matrix(-1.836970e-16 1 -1 -1.836970e-16 80.2181 -2.55)" class="st2" width="1.32" height="3.08"/>
					
						<rect x="40.72" y="40.38" transform="matrix(-1.836970e-16 1 -1 -1.836970e-16 83.3007 0.5326)" class="st2" width="1.32" height="3.08"/>
					
						<rect x="40.72" y="43.46" transform="matrix(-1.836970e-16 1 -1 -1.836970e-16 86.3834 3.6153)" class="st2" width="1.32" height="3.08"/>
				</g>
				<g>
					
						<rect x="52.17" y="37.29" transform="matrix(-1.836970e-16 1 -1 -1.836970e-16 91.6679 -13.9999)" class="st2" width="1.32" height="3.08"/>
					
						<rect x="52.17" y="40.38" transform="matrix(-1.836970e-16 1 -1 -1.836970e-16 94.7506 -10.9172)" class="st2" width="1.32" height="3.08"/>
					
						<rect x="52.17" y="43.46" transform="matrix(-1.836970e-16 1 -1 -1.836970e-16 97.8332 -7.8346)" class="st2" width="1.32" height="3.08"/>
				</g>
			</g>
			<rect x="43.81" y="38.61" class="st2" width="6.61" height="6.61"/>
		</g>
		<rect x="40.28" y="29.81" class="st2" width="4.4" height="1.32"/>
		<rect x="40.28" y="24.72" class="st2" width="1.32" height="6.4"/>
		<circle class="st1" cx="40.94" cy="25.39" r="1.98"/>
		<rect x="49.53" y="33.33" class="st2" width="4.4" height="1.32"/>
		
			<rect x="50.85" y="31.57" transform="matrix(-1.836970e-16 1 -1 -1.836970e-16 85.5026 -21.046)" class="st2" width="4.84" height="1.32"/>
		<circle class="st1" cx="53.27" cy="30.53" r="1.98"/>
		<rect x="46.45" y="27.37" class="st2" width="4.4" height="1.32"/>
		
			<rect x="47.11" y="24.5" transform="matrix(-1.836970e-16 1 -1 -1.836970e-16 75.3569 -25.0263)" class="st2" width="6.17" height="1.32"/>
		<circle class="st1" cx="50.19" cy="20.98" r="1.98"/>
	</g>
	<g>
		<g>
			<g>
				
					<rect x="41.16" y="35.97" transform="matrix(-7.632211e-14 -1 1 -7.632211e-14 5.1923 89.0256)" class="st1" width="11.89" height="11.89"/>
				<g>
					
						<rect x="52.17" y="43.46" transform="matrix(6.123234e-17 -1 1 6.123234e-17 7.8346 97.8332)" class="st2" width="1.32" height="3.08"/>
					
						<rect x="52.17" y="40.38" transform="matrix(6.123234e-17 -1 1 6.123234e-17 10.9172 94.7506)" class="st2" width="1.32" height="3.08"/>
					
						<rect x="52.17" y="37.29" transform="matrix(6.123234e-17 -1 1 6.123234e-17 13.9999 91.6679)" class="st2" width="1.32" height="3.08"/>
				</g>
				<g>
					
						<rect x="38.3" y="41.04" transform="matrix(6.123234e-17 -1 1 6.123234e-17 -6.0374 83.9613)" class="st2" width="1.32" height="7.93"/>
					
						<rect x="35.22" y="34.87" transform="matrix(6.123234e-17 -1 1 6.123234e-17 -6.0374 77.796)" class="st2" width="1.32" height="14.09"/>
					
						<rect x="40.72" y="37.29" transform="matrix(6.123234e-17 -1 1 6.123234e-17 2.55 80.2181)" class="st2" width="1.32" height="3.08"/>
				</g>
				<g>
					<rect x="43.37" y="46.1" class="st2" width="1.32" height="3.08"/>
					<rect x="46.45" y="46.1" class="st2" width="1.32" height="3.08"/>
					<rect x="49.53" y="46.1" class="st2" width="1.32" height="3.08"/>
				</g>
				<g>
					<rect x="43.37" y="34.65" class="st2" width="1.32" height="3.08"/>
					<rect x="46.45" y="34.65" class="st2" width="1.32" height="3.08"/>
					<rect x="49.53" y="34.65" class="st2" width="1.32" height="3.08"/>
				</g>
			</g>
			
				<rect x="43.81" y="38.61" transform="matrix(6.123234e-17 -1 1 6.123234e-17 5.1923 89.0256)" class="st2" width="6.61" height="6.61"/>
		</g>
		
			<rect x="33.46" y="45.88" transform="matrix(6.123234e-17 -1 1 6.123234e-17 -10.8815 82.1998)" class="st2" width="4.4" height="1.32"/>
		
			<rect x="30.37" y="42.8" transform="matrix(6.123234e-17 -1 1 6.123234e-17 -17.0469 79.1171)" class="st2" width="1.32" height="10.57"/>
		<circle class="st1" cx="26.41" cy="48.08" r="1.98"/>
		
			<rect x="36.98" y="36.63" transform="matrix(6.123234e-17 -1 1 6.123234e-17 1.8895 76.4748)" class="st2" width="4.4" height="1.32"/>
		<rect x="35" y="35.09" class="st2" width="4.84" height="1.32"/>
		<circle class="st1" cx="34.34" cy="35.75" r="1.98"/>
		
			<rect x="26.85" y="39.71" transform="matrix(6.123234e-17 -1 1 6.123234e-17 -11.3219 69.4288)" class="st2" width="4.4" height="1.32"/>
		<rect x="23.11" y="38.17" class="st2" width="6.17" height="1.32"/>
		<circle class="st1" cx="22.01" cy="38.83" r="1.98"/>
	</g>
	<g>
		
			<rect x="41.16" y="35.97" transform="matrix(1.525830e-13 1 -1 1.525830e-13 89.0256 -5.1923)" class="st1" width="11.89" height="11.89"/>
		<g>
			
				<rect x="40.72" y="37.29" transform="matrix(-1.836970e-16 1 -1 -1.836970e-16 80.2181 -2.55)" class="st2" width="1.32" height="3.08"/>
			
				<rect x="40.72" y="40.38" transform="matrix(-1.836970e-16 1 -1 -1.836970e-16 83.3007 0.5326)" class="st2" width="1.32" height="3.08"/>
			
				<rect x="40.72" y="43.46" transform="matrix(-1.836970e-16 1 -1 -1.836970e-16 86.3834 3.6153)" class="st2" width="1.32" height="3.08"/>
		</g>
		<g>
			
				<rect x="54.6" y="34.87" transform="matrix(-1.836970e-16 1 -1 -1.836970e-16 94.09 -16.422)" class="st2" width="1.32" height="7.93"/>
			
				<rect x="57.68" y="34.87" transform="matrix(-1.836970e-16 1 -1 -1.836970e-16 100.2553 -16.422)" class="st2" width="1.32" height="14.09"/>
			
				<rect x="52.17" y="43.46" transform="matrix(-1.836970e-16 1 -1 -1.836970e-16 97.8332 -7.8346)" class="st2" width="1.32" height="3.08"/>
		</g>
		<g>
			
				<rect x="49.53" y="34.65" transform="matrix(-1 -1.224647e-16 1.224647e-16 -1 100.3833 72.3835)" class="st2" width="1.32" height="3.08"/>
			
				<rect x="46.45" y="34.65" transform="matrix(-1 -1.224647e-16 1.224647e-16 -1 94.2179 72.3835)" class="st2" width="1.32" height="3.08"/>
			
				<rect x="43.37" y="34.65" transform="matrix(-1 -1.224647e-16 1.224647e-16 -1 88.0526 72.3835)" class="st2" width="1.32" height="3.08"/>
		</g>
		<g>
			
				<rect x="49.53" y="46.1" transform="matrix(-1 -1.224647e-16 1.224647e-16 -1 100.3833 95.2832)" class="st2" width="1.32" height="3.08"/>
			
				<rect x="46.45" y="46.1" transform="matrix(-1 -1.224647e-16 1.224647e-16 -1 94.2179 95.2832)" class="st2" width="1.32" height="3.08"/>
			
				<rect x="43.37" y="46.1" transform="matrix(-1 -1.224647e-16 1.224647e-16 -1 88.0526 95.2832)" class="st2" width="1.32" height="3.08"/>
		</g>
	</g>
	
		<rect x="43.81" y="38.61" transform="matrix(-1.836970e-16 1 -1 -1.836970e-16 89.0256 -5.1923)" class="st2" width="6.61" height="6.61"/>
	
		<rect x="56.36" y="36.63" transform="matrix(-1.836970e-16 1 -1 -1.836970e-16 95.8515 -21.2662)" class="st2" width="4.4" height="1.32"/>
	
		<rect x="62.52" y="30.47" transform="matrix(-1.836970e-16 1 -1 -1.836970e-16 98.9342 -27.4315)" class="st2" width="1.32" height="10.57"/>
	<circle class="st1" cx="67.81" cy="35.75" r="1.98"/>
	
		<rect x="52.83" y="45.88" transform="matrix(2.058737e-13 1 -1 2.058737e-13 101.5765 -8.4952)" class="st2" width="4.4" height="1.32"/>
	
		<rect x="54.38" y="47.42" transform="matrix(-1 -1.224647e-16 1.224647e-16 -1 113.5946 96.164)" class="st2" width="4.84" height="1.32"/>
	<circle class="st1" cx="59.88" cy="48.08" r="1.98"/>
	
		<rect x="62.96" y="42.8" transform="matrix(-1.836970e-16 1 -1 -1.836970e-16 108.6225 -21.7065)" class="st2" width="4.4" height="1.32"/>
	
		<rect x="64.94" y="44.34" transform="matrix(-1 -1.224647e-16 1.224647e-16 -1 136.054 89.9986)" class="st2" width="6.17" height="1.32"/>
	<circle class="st1" cx="72.21" cy="45" r="1.98"/>
</g>
</svg>
